<?xml version="1.0" encoding="UTF-8"?>
<svg id="Layer_1" data-name="Layer 1" xmlns="http://www.w3.org/2000/svg" viewBox="0 0 942.5 141.25">
  <defs>
    <style>
      .cls-1 {
        fill: #07f;
      }

      .cls-2 {
        fill: #ffffff;
      }

      .cls-3 {
        fill: #ffffff;
      }

      .cls-4 {
        fill: #ffffff;
      }
    </style>
  </defs>
  <g>
    <g>
      <path class="cls-4" d="m148.74,34.94c0,1.43-.16,2.67-.47,3.73s-.84,1.96-1.57,2.69c-.65.65-1.47,1.16-2.46,1.52-.99.37-2.16.53-3.5.49-2.53-.02-4.48-.71-5.87-2.07-.67-.69-1.19-1.52-1.56-2.5-.37-.97-.53-2.08-.49-3.34h4.73c0,1.08.23,1.97.7,2.67.46.7,1.31,1.06,2.54,1.09,1.21.02,2.05-.32,2.53-1.04.48-.71.71-1.61.71-2.69v-15.26h4.7v14.71Z"/>
      <path class="cls-4" d="m157.91,38.8l-1.65,4.37h-5.12l8.88-22.94h5.31l8.75,22.94h-5.15l-1.59-4.37h-9.43Zm1.36-4.15h6.68l-3.31-9.46-3.37,9.46Z"/>
      <path class="cls-4" d="m182.05,20.23l6.87,10.79,6.84-10.79h4.99v22.94h-4.67v-15.81l-6.19,9.88h-2.11l-6.19-9.88v15.81h-4.63v-22.94h5.09Z"/>
      <path class="cls-4" d="m206.03,43.17v-22.94h10.18c1.06,0,2.04.11,2.93.32.9.22,1.68.61,2.35,1.17.54.43,1,1,1.38,1.7.38.7.57,1.55.57,2.54.02,1.06-.17,2-.57,2.82-.4.82-1.07,1.51-2.03,2.07.67.19,1.24.49,1.72.88.47.39.86.84,1.15,1.36.29.52.5,1.08.63,1.69.13.61.18,1.23.16,1.88-.04,1.04-.32,1.99-.83,2.87-.51.87-1.17,1.58-1.99,2.12-.97.67-2.04,1.09-3.21,1.26-1.17.17-2.32.26-3.47.26h-8.98Zm8.85-13.64c.48,0,.95-.03,1.43-.08.48-.05.92-.2,1.33-.44.35-.22.64-.51.88-.88.24-.37.37-.8.39-1.3.02-.52-.07-.94-.26-1.26-.19-.32-.43-.57-.71-.75-.35-.22-.75-.34-1.2-.37-.45-.03-.92-.05-1.39-.05h-4.6v5.12h4.15Zm-4.15,9.49h4.28c.63,0,1.29-.04,1.99-.11s1.3-.3,1.8-.66c.3-.24.55-.54.75-.89.19-.36.29-.8.29-1.34,0-.5-.11-.92-.32-1.26-.22-.35-.49-.61-.81-.78-.37-.24-.78-.38-1.25-.42-.46-.04-.95-.06-1.44-.06l-5.28.03v5.51Z"/>
      <path class="cls-4" d="m242.39,20.23h5.31l-8.49,14.36v8.59h-4.7v-8.52l-8.59-14.42h5.41l5.57,9.92,5.48-9.92Z"/>
      <path class="cls-4" d="m255.32,39.02h11.24v4.15h-15.91v-22.94h4.67v18.79Z"/>
      <path class="cls-4" d="m138.95,82.06h-4.7v-22.94h4.7v22.94Z"/>
      <path class="cls-4" d="m148.77,59.11l10.89,15.36v-15.36h4.6v22.94h-4.5l-10.89-15.3v15.3h-4.6v-22.94h4.5Z"/>
      <path class="cls-4" d="m174.08,59.11l10.89,15.36v-15.36h4.6v22.94h-4.5l-10.89-15.3v15.3h-4.6v-22.94h4.5Z"/>
      <path class="cls-4" d="m204.99,58.82c1.75,0,3.33.28,4.73.84,1.4.56,2.59,1.36,3.56,2.38.97,1.03,1.72,2.25,2.24,3.68.52,1.43.78,3,.78,4.73s-.26,3.25-.78,4.7c-.52,1.45-1.26,2.7-2.24,3.76s-2.17,1.88-3.58,2.48c-1.42.59-3.02.88-4.81.86-1.79,0-3.39-.3-4.78-.89-1.39-.59-2.57-1.41-3.53-2.45-.96-1.04-1.7-2.27-2.2-3.69-.51-1.43-.76-2.98-.76-4.67s.26-3.31.79-4.75c.53-1.44,1.28-2.67,2.27-3.71.98-1.04,2.18-1.84,3.58-2.41,1.4-.57,2.98-.86,4.73-.86Zm-6.55,11.67c0,.99.13,1.94.41,2.84.27.9.67,1.69,1.2,2.38.53.69,1.2,1.25,2.03,1.67.82.42,1.78.64,2.88.66,1.06.02,2-.17,2.82-.57.82-.4,1.5-.95,2.04-1.65.54-.7.95-1.51,1.23-2.43.28-.92.42-1.87.42-2.87s-.14-1.91-.4-2.82c-.27-.91-.67-1.71-1.2-2.41-.53-.7-1.2-1.26-2.03-1.67-.82-.41-1.78-.62-2.88-.62s-2.03.21-2.85.62c-.82.41-1.5.96-2.04,1.65-.54.69-.95,1.49-1.21,2.38-.27.9-.41,1.84-.41,2.84Z"/>
      <path class="cls-4" d="m234.58,59.11h5.09l-8.72,22.94h-5.06l-8.72-22.94h5.22l6.12,17.34,6.06-17.34Z"/>
      <path class="cls-4" d="m245.34,77.68l-1.65,4.37h-5.12l8.88-22.94h5.31l8.75,22.94h-5.15l-1.59-4.37h-9.43Zm1.36-4.15h6.68l-3.31-9.46-3.37,9.46Z"/>
      <path class="cls-4" d="m260.54,63.29v-4.18h19.09v4.18h-7.19v18.76h-4.7v-18.76h-7.19Z"/>
      <path class="cls-4" d="m287.4,82.06h-4.7v-22.94h4.7v22.94Z"/>
      <path class="cls-4" d="m302.82,58.82c1.75,0,3.33.28,4.73.84,1.4.56,2.59,1.36,3.56,2.38.97,1.03,1.72,2.25,2.24,3.68.52,1.43.78,3,.78,4.73s-.26,3.25-.78,4.7c-.52,1.45-1.26,2.7-2.24,3.76s-2.17,1.88-3.58,2.48c-1.42.59-3.02.88-4.81.86-1.79,0-3.39-.3-4.78-.89-1.39-.59-2.57-1.41-3.53-2.45-.96-1.04-1.7-2.27-2.2-3.69-.51-1.43-.76-2.98-.76-4.67s.26-3.31.79-4.75c.53-1.44,1.28-2.67,2.27-3.71.98-1.04,2.18-1.84,3.58-2.41,1.4-.57,2.98-.86,4.73-.86Zm-6.55,11.67c0,.99.13,1.94.41,2.84.27.9.67,1.69,1.2,2.38.53.69,1.2,1.25,2.03,1.67.82.42,1.78.64,2.88.66,1.06.02,2-.17,2.82-.57.82-.4,1.5-.95,2.04-1.65.54-.7.95-1.51,1.23-2.43.28-.92.42-1.87.42-2.87s-.14-1.91-.4-2.82c-.27-.91-.67-1.71-1.2-2.41-.53-.7-1.2-1.26-2.03-1.67-.82-.41-1.78-.62-2.88-.62s-2.03.21-2.85.62c-.82.41-1.5.96-2.04,1.65-.54.69-.95,1.49-1.21,2.38-.27.9-.41,1.84-.41,2.84Z"/>
      <path class="cls-4" d="m322.69,59.11l10.89,15.36v-15.36h4.6v22.94h-4.5l-10.89-15.3v15.3h-4.6v-22.94h4.5Z"/>
      <path class="cls-4" d="m138.95,107.53h10.14v-9.53h4.7v22.94h-4.7v-9.24h-10.14v9.24h-4.7v-22.94h4.7v9.53Z"/>
      <path class="cls-4" d="m163.81,120.94h-4.7v-22.94h4.7v22.94Z"/>
      <path class="cls-4" d="m172.72,109.44c0,.99.12,1.94.37,2.84.25.9.63,1.68,1.15,2.37.52.68,1.18,1.23,1.98,1.64.8.41,1.75.63,2.85.65.67.02,1.32-.05,1.96-.23.64-.17,1.2-.44,1.7-.79.5-.36.9-.81,1.22-1.38.31-.56.5-1.22.57-1.98h-5.77v-3.79h10.37c.02.82.01,1.66-.03,2.53-.04.86-.16,1.71-.34,2.53-.18.82-.45,1.62-.81,2.38-.36.77-.83,1.45-1.41,2.06-.82.86-1.85,1.56-3.08,2.09-1.23.53-2.71.79-4.44.79s-3.39-.29-4.78-.86c-1.39-.57-2.56-1.38-3.5-2.41-.94-1.04-1.65-2.27-2.14-3.69-.49-1.43-.73-2.99-.73-4.7s.24-3.35.73-4.8c.49-1.45,1.2-2.68,2.16-3.71.95-1.03,2.12-1.83,3.52-2.4,1.39-.57,2.99-.86,4.78-.86,1.23,0,2.41.16,3.53.49,1.12.32,2.12.81,2.98,1.46.86.65,1.58,1.46,2.14,2.43.56.97.9,2.11,1.01,3.4h-4.54c-.22-1.1-.82-1.99-1.8-2.66-.98-.67-2.15-.98-3.52-.94-1.08.04-2.01.28-2.79.7s-1.42.98-1.91,1.67c-.5.69-.86,1.49-1.09,2.38-.23.9-.34,1.83-.34,2.8Z"/>
      <path class="cls-4" d="m197.9,107.53h10.14v-9.53h4.7v22.94h-4.7v-9.24h-10.14v9.24h-4.7v-22.94h4.7v9.53Z"/>
      <path class="cls-4" d="m230.82,109.4c0,.97.12,1.91.37,2.82s.63,1.71,1.13,2.4c.51.69,1.16,1.25,1.94,1.67.79.42,1.73.63,2.84.63,1.38,0,2.52-.31,3.42-.92.9-.62,1.45-1.47,1.67-2.58h4.54c-.11,1.28-.44,2.39-1,3.35-.56.96-1.29,1.77-2.17,2.41-.89.65-1.89,1.13-3.01,1.46-1.12.32-2.29.49-3.5.49-1.79,0-3.38-.29-4.75-.88-1.37-.58-2.53-1.39-3.47-2.43-.94-1.04-1.65-2.27-2.12-3.69-.48-1.43-.71-2.99-.71-4.7s.24-3.21.73-4.65c.49-1.44,1.2-2.68,2.16-3.73.95-1.05,2.11-1.87,3.48-2.46,1.37-.59,2.95-.89,4.75-.89,1.25,0,2.43.15,3.53.45,1.1.3,2.08.77,2.95,1.39.86.63,1.57,1.43,2.12,2.41.55.98.89,2.15,1.02,3.52h-4.54c-.24-1.1-.8-1.98-1.69-2.62-.89-.65-2.02-.97-3.4-.97-1.1,0-2.05.2-2.84.6-.79.4-1.44.95-1.94,1.64-.51.69-.89,1.5-1.13,2.41-.25.92-.37,1.87-.37,2.87Z"/>
      <path class="cls-4" d="m261.02,97.71c1.75,0,3.33.28,4.73.84,1.4.56,2.59,1.36,3.56,2.38.97,1.03,1.72,2.25,2.24,3.68.52,1.43.78,3,.78,4.73s-.26,3.25-.78,4.7c-.52,1.45-1.26,2.7-2.24,3.76-.97,1.06-2.17,1.88-3.58,2.48-1.42.59-3.02.88-4.81.86-1.79,0-3.39-.3-4.78-.89-1.39-.59-2.57-1.41-3.53-2.45-.96-1.04-1.7-2.27-2.2-3.69-.51-1.43-.76-2.98-.76-4.67s.26-3.31.79-4.75c.53-1.44,1.28-2.67,2.27-3.71.98-1.04,2.18-1.84,3.58-2.41,1.4-.57,2.98-.86,4.73-.86Zm-6.55,11.67c0,.99.13,1.94.41,2.84.27.9.67,1.69,1.2,2.38.53.69,1.2,1.25,2.03,1.67.82.42,1.78.64,2.88.66,1.06.02,2-.17,2.82-.57.82-.4,1.5-.95,2.04-1.65.54-.7.95-1.51,1.23-2.43.28-.92.42-1.87.42-2.87s-.14-1.91-.4-2.82c-.27-.91-.67-1.71-1.2-2.41-.53-.7-1.2-1.26-2.03-1.67-.82-.41-1.78-.62-2.88-.62s-2.03.21-2.85.62c-.82.41-1.5.96-2.04,1.65-.54.69-.95,1.49-1.21,2.38-.27.9-.41,1.84-.41,2.84Z"/>
      <path class="cls-4" d="m281.05,116.79h11.24v4.15h-15.91v-22.94h4.67v18.79Z"/>
      <path class="cls-4" d="m300.75,116.79h11.24v4.15h-15.91v-22.94h4.67v18.79Z"/>
      <path class="cls-4" d="m332.18,98v4.18h-11.7v5.35h10.21v4.18h-10.21v5.09h11.7v4.15h-16.4v-22.94h16.4Z"/>
      <path class="cls-4" d="m339.83,109.44c0,.99.12,1.94.37,2.84.25.9.63,1.68,1.15,2.37.52.68,1.18,1.23,1.98,1.64.8.41,1.75.63,2.85.65.67.02,1.32-.05,1.96-.23.64-.17,1.2-.44,1.7-.79.5-.36.9-.81,1.22-1.38.31-.56.5-1.22.57-1.98h-5.77v-3.79h10.37c.02.82.01,1.66-.03,2.53-.04.86-.16,1.71-.34,2.53-.18.82-.45,1.62-.81,2.38-.36.77-.83,1.45-1.41,2.06-.82.86-1.85,1.56-3.08,2.09-1.23.53-2.71.79-4.44.79s-3.39-.29-4.78-.86c-1.39-.57-2.56-1.38-3.5-2.41-.94-1.04-1.65-2.27-2.14-3.69-.49-1.43-.73-2.99-.73-4.7s.24-3.35.73-4.8c.49-1.45,1.2-2.68,2.16-3.71.95-1.03,2.12-1.83,3.52-2.4,1.39-.57,2.99-.86,4.78-.86,1.23,0,2.41.16,3.53.49,1.12.32,2.12.81,2.98,1.46.86.65,1.58,1.46,2.14,2.43.56.97.9,2.11,1.01,3.4h-4.54c-.22-1.1-.82-1.99-1.8-2.66-.98-.67-2.15-.98-3.52-.94-1.08.04-2.01.28-2.79.7s-1.42.98-1.91,1.67c-.5.69-.86,1.49-1.09,2.38-.23.9-.34,1.83-.34,2.8Z"/>
      <path class="cls-4" d="m376.7,98v4.18h-11.7v5.35h10.21v4.18h-10.21v5.09h11.7v4.15h-16.4v-22.94h16.4Z"/>
    </g>
    <g>
      <circle class="cls-1" cx="67.68" cy="20.23" r="5.46"/>
      <circle class="cls-1" cx="53.59" cy="73.92" r="9.24"/>
      <path class="cls-1" d="m54.19,20.08h0c0,1.69-1.26,3.09-2.94,3.3-4.86.6-10.03,2-15.34,4.58-12.32,5.96-21.63,15.77-26.19,27.62-4.63,11.99-3.99,25.17,1.8,37.12,4.35,8.97,11.35,16.04,20.24,20.44,1.48.73,2.39,2.37,1.96,3.97-.42,1.53-1.78,2.45-3.21,2.45-.48,0-.99-.11-1.45-.34-10.35-5.05-18.48-13.22-23.52-23.62-6.6-13.62-7.33-28.68-2.02-42.42,5.19-13.43,15.67-24.51,29.51-31.21,5.62-2.73,11.48-4.46,17.46-5.2,1.97-.24,3.71,1.33,3.71,3.31Z"/>
      <path class="cls-1" d="m63.3,123c-1.49,0-2.84-1-3.22-2.51-.45-1.78.63-3.59,2.41-4.04,2.93-.74,5.81-1.79,8.55-3.12,19.49-9.45,27.67-32.99,18.22-52.48-8.32-17.16-29.07-24.36-46.23-16.05-3.24,1.58-6.12,3.66-8.56,6.18-1.27,1.32-3.38,1.36-4.7.08-1.32-1.27-1.36-3.38-.08-4.7,2.98-3.09,6.49-5.62,10.44-7.55,20.48-9.91,45.2-1.33,55.12,19.13,11.04,22.79,1.49,50.32-21.3,61.36-3.15,1.52-6.45,2.73-9.82,3.58-.27.07-.55.1-.82.1Z"/>
      <path class="cls-1" d="m53.03,107.17c-12.39,0-24.32-6.93-30.08-18.8-1.12-2.33-1.98-4.69-2.57-7.02-.45-1.78.63-3.59,2.41-4.03,1.79-.45,3.59.63,4.03,2.41.48,1.91,1.19,3.84,2.11,5.76,6.42,13.24,22.43,18.79,35.69,12.37,5.63-2.73,9.85-7.48,11.9-13.39,2.05-5.9,1.68-12.25-1.05-17.88l-.08-.17c-.89-1.61-.31-3.63,1.3-4.52,1.61-.89,3.63-.31,4.52,1.3.11.19.21.39.3.58,3.46,7.13,3.94,15.28,1.31,22.86-2.63,7.58-8.06,13.68-15.28,17.19-4.67,2.26-9.62,3.34-14.5,3.34Z"/>
      <circle class="cls-1" cx="24.18" cy="63.71" r="5.46"/>
      <circle class="cls-1" cx="46.46" cy="121.14" r="5.46"/>
    </g>
  </g>
  <rect class="cls-4" x="437.04" width="2.28" height="141.25"/>
  <g>
    <g>
      <polygon class="cls-2" points="552.47 48.87 547.47 57.75 542.47 48.87 547.47 39.99 552.47 48.87"/>
      <path class="cls-3" d="m554.89,95.3c7.12-6.3,12.22-9.44,16.86-12.19,8.96-5.3,13.13-12.54,13.13-20.34-4.17,7.8-8.33,12.7-14.72,17.51-5.47,4.12-11.15,8.42-16.61,13.89-1.21,1.21-6,6-7.21,7.21-3.86,3.86-7.13,7.82-10.18,11.74.74.48,1.5.91,2.3,1.29,2.18-3.34,4.93-7.09,9-11.69.5-.56,6.87-6.93,7.43-7.43m-3.11-2.67c10.52-9.39,14.77-13.26,16.75-15.24,8.85-8.84,16.34-19.1,16.34-28.52,0-5.27-2.53-11.06-4.51-13.03,0,0,.34,1.73.34,4.15,0,8.88,0,17.9-13.95,34.25-1.95,2.28-6.39,7.07-16.31,17.17-1.14,1.16-5.71,5.73-6.87,6.87-5.13,5.04-8.89,8.66-11.65,11.27.66.73,1.37,1.4,2.12,2.03,2.41-2.64,5.82-6.44,10.74-11.96,1.1-1.24,5.75-5.88,6.98-6.98m13.29-21.39c9.31-13.35,11.48-22.37,11.48-31.25,0-10.75-6.25-17.87-8.49-17.87,1.78,5.11,2.6,11.6,2.6,17.87,0,8.88-2.1,18.21-7.65,27.58-4.43,7.49-9.46,14.77-15.53,20.95-1.13,1.14-5.64,5.66-6.79,6.79-3.64,3.58-7.66,6.79-11.88,9.73.45.87.96,1.71,1.53,2.51,4.06-3.42,7.94-7.17,11.63-10.95,1.12-1.15,5.65-5.67,6.8-6.8,5.88-5.75,11.68-11.93,16.3-18.56m-17.59,31.48c4.07,4.6,6.82,8.35,9,11.69.8-.38,1.56-.82,2.3-1.29-3.04-3.92-6.32-7.89-10.18-11.74-1.21-1.21-6-6-7.21-7.21-5.46-5.46-11.15-9.77-16.61-13.89-6.39-4.81-10.55-9.72-14.72-17.51,0,7.8,4.16,15.04,13.13,20.34,4.64,2.74,9.74,5.89,16.86,12.19.56.5,6.93,6.87,7.43,7.43m2.66-3.11c4.93,5.52,8.33,9.32,10.74,11.96.75-.63,1.46-1.31,2.12-2.03-2.76-2.6-6.51-6.23-11.65-11.27-1.16-1.14-5.73-5.71-6.87-6.87-9.92-10.1-14.36-14.89-16.31-17.17-13.95-16.35-13.95-25.37-13.95-34.25,0-2.42.34-4.15.34-4.15-1.97,1.97-4.51,7.76-4.51,13.03,0,9.42,7.49,19.68,16.34,28.52,1.98,1.98,6.23,5.85,16.75,15.24,1.24,1.1,5.88,5.75,6.98,6.98m-3.97-9.81c1.15,1.12,5.67,5.65,6.8,6.8,3.7,3.78,7.57,7.53,11.63,10.95.57-.8,1.08-1.64,1.53-2.51-4.22-2.94-8.25-6.16-11.88-9.73-1.14-1.13-5.66-5.64-6.79-6.79-6.07-6.17-11.1-13.45-15.53-20.95-5.54-9.37-7.65-18.7-7.65-27.58,0-6.27.82-12.76,2.6-17.87-2.24,0-8.49,7.12-8.49,17.87,0,8.88,2.17,17.89,11.48,31.25,4.62,6.63,10.42,12.81,16.3,18.56"/>
    </g>
    <g>
      <g>
        <path class="cls-3" d="m639.38,84.57h0c-.31-.13-.61-.27-.92-.4-3.6-1.55-6.71-2.89-6.71-6.5s2.9-6.31,7.21-6.31c2.91,0,4.68.76,6.3,2.71l.14.17.02-.22c.16-1.58,0-2.98,0-2.99v-.06s-.06-.02-.06-.02c-.96-.29-3.5-.96-6.4-.96-7.75,0-11.29,4.36-11.29,8.41,0,4.36,2.58,7.7,7.66,9.93.62.27,1.25.52,1.92.79,3.61,1.43,7.34,2.91,7.34,7.01,0,2.77-2.3,6.87-7.25,6.87-3.44,0-6.65-1.35-9.53-4.02l-.14-.13v.19s-.15,1.91-.03,3.35v.05s.05.02.05.02c1.65.95,5.27,1.91,9.65,1.91,8.36,0,11.32-5.02,11.32-9.31,0-5.93-4.79-8.53-9.29-10.5"/>
        <path class="cls-3" d="m668.28,69.99c-5.57,0-8.5.31-11.19.78h-.08s0,.28,0,.28c0,.03.77,3.41.77,8.87v23.5s2.55-.06,4.76-.04c1.46.02,3.28.04,5.88.04,9.21,0,17.53-7.49,17.53-16.69,0-4.5-1.7-8.67-4.79-11.75-3.23-3.22-7.81-5-12.89-5m-6.52,1.84c.34-.09,1.87-.46,4.8-.46,9.21,0,15.16,6.04,15.16,15.38,0,8.84-5.44,15.02-13.24,15.07h-6.44v-21.88c0-5.29-.23-7.66-.28-8.1"/>
        <path class="cls-3" d="m716.19,90.67c0,4.36-.61,7.44-1.88,9.39-1.28,1.98-3.32,2.95-6.22,2.95-6.42,0-9.29-3.81-9.29-12.34v-10.74c0-4.62-.48-8.86-.49-8.9v-.08h-4.55l.03.11s.76,2.91.76,8.87l-.02,10.74c0,9.1,4.36,13.71,12.96,13.71s12.92-4.36,12.92-13.71v-19.73h-4.24v19.73Z"/>
      </g>
      <g>
        <path class="cls-3" d="m766,90.67c0,8.4-2.88,12.49-8.82,12.49-6.73,0-10.01-4.08-10.01-12.49v-10.74c0-4.63-.49-8.87-.49-8.91l-.02-.16h-3.93l.06.23s.76,2.9.76,8.84l-.02,10.74c0,9.16,4.39,13.8,13.05,13.8s13.01-4.38,13.01-13.8v-19.82h-3.61v19.82Z"/>
        <path class="cls-3" d="m795.28,98.16v-10.97c0-4.71-3.92-8.4-8.91-8.4-2.67,0-5.21,1.19-7.04,3.27v-2.8h-.18c-1.61,0-4.02.22-4.05.22l-.17.02v.5s.06.05.06.05c.03.03.71.82.71,6.53v16.93h3.63v-19.5c1.48-2.49,3.73-3.91,6.18-3.91,4.14,0,6.15,2.83,6.15,8.66v14.75h4.46l-.1-.25s-.74-1.92-.74-5.11"/>
        <path class="cls-3" d="m800.56,79.97s.76,3.4.76,8.85v14.7h3.61v-23.77h-4.43l.05.22Z"/>
        <path class="cls-3" d="m803.13,70.85c-1.34,0-2.42,1.09-2.42,2.42s1.09,2.42,2.42,2.42,2.42-1.09,2.42-2.42-1.09-2.42-2.42-2.42"/>
        <path class="cls-3" d="m827.24,79.96s.22,1.06,0,2.79c-.2,1.55-.69,3.19-1.61,5.33-3.8,8.85-4.17,9.62-4.44,10.18-.08.18-.16.33-.32.7-.94-2.13-2.88-6.53-4.76-10.9-2.22-5.16-2.64-7.56-2.34-8.04l.18-.28h-5.49l.12.26s1.8,3.98,3.66,8.21c.36.81,1.24,2.86,2.31,5.33,1.52,3.51,3.4,7.88,4.69,10.82l.05.11h1.36l6.95-16.24c2.36-5.52,3.74-8.2,3.76-8.22l.14-.27h-4.29l.05.22Z"/>
        <path class="cls-3" d="m845.76,78.79c-7.08,0-12.84,5.76-12.84,12.84s5.76,12.84,12.84,12.84c6.37,0,9.6-3.55,9.63-3.58l.04-.05v-.06c.09-1.11,0-3.22,0-3.31l-.03-.69-.32.62c-1.03,2.01-4.83,5.75-9.33,5.75-4.81,0-9.03-5.38-9.03-11.52,0-.06,0-.13,0-.19h13.47c3.39-.03,6.03-.74,6.05-.75l.12-.03.04-.4c.07-.68.1-1.02.1-1.96,0-5.24-4.82-9.51-10.75-9.51m-.35,1.32h.07c2.14.02,3.99.86,5.37,2.45,1.57,1.81,2.3,4.41,1.96,6.99-.36.13-1.7.57-3.29.57h-12.72c.54-5.9,4.06-10.01,8.61-10.01"/>
        <path class="cls-3" d="m871.56,78.79h-.18c-2.45,0-4.51,1.07-6.15,3.2v-2.73h-.18c-1.61,0-4.02.22-4.05.22l-.17.02v.5s.06.06.06.06c.03.03.71.82.71,6.53v16.93h3.63v-17.17c0-3.61,3.16-5.29,5.29-5.29,1.99,0,3.37,1.11,4.01,2.15l.14.23.16-.22c.04-.05.99-1.35,1.45-3.26l.03-.15-.13-.06c-1.23-.58-2.99-.94-4.62-.97"/>
        <path class="cls-3" d="m888.02,89.36l-.26-.11-.27-.11c-3-1.29-5.16-2.23-5.16-4.84.05-2.62,2.48-4.19,4.8-4.19s4.61,1.49,5.37,2.89l.29.52.06-.59c.11-1.11.01-2.93,0-3.01v-.11s-.11-.05-.11-.05c-1.28-.6-3.12-.97-4.8-.97-5.76,0-8.86,3.1-8.86,6.02,0,3.15,1.66,5.23,5.54,6.99.34.16.7.31,1.05.46,3.05,1.33,6.21,2.7,6.23,5.9,0,1.2-.53,2.47-1.45,3.4-.72.73-2.03,1.59-4.14,1.59-4.45,0-7.48-5.17-7.81-5.76l-.31-.55-.03.63c0,.08-.11,2.07,0,3.31v.05s.03.04.03.04c.02.04,2.55,3.61,8.12,3.61,3.02,0,5.46-.85,7.04-2.46,1.27-1.29,1.95-3.03,1.92-4.9,0-4.24-3.59-6.16-7.27-7.76"/>
        <path class="cls-3" d="m901.83,70.85c-1.34,0-2.42,1.09-2.42,2.42s1.09,2.42,2.42,2.42,2.42-1.09,2.42-2.42-1.09-2.42-2.42-2.42"/>
        <path class="cls-3" d="m899.25,79.97s.76,3.4.76,8.85v14.7h3.61v-23.77h-4.43l.05.22Z"/>
        <path class="cls-3" d="m914.08,74.3l-2.01.84v.12c0,2.47-1.98,4.48-4.42,4.48h-.15l-.23,1.32h.21s1.36.03,2.97.03v13.35c0,6.96,1.49,8.98,4.82,10.85l.07.04.07-.02c1.01-.3,1.64-.81,1.67-.83l.25-.21-.31-.1c-.12-.04-2.95-1.04-2.95-6.02v-16.9c1.45.14,2.35.37,3.3.6l.26.07.06-.14s.3-.71.31-1.76l.26-.26h-4.18v-5.45Z"/>
        <path class="cls-3" d="m938.21,79.74l.05.22s.22,1.06,0,2.79c-.2,1.56-.7,3.2-1.61,5.33-3.8,8.86-4.17,9.62-4.44,10.18-.08.17-.16.33-.32.7-.94-2.12-2.88-6.53-4.76-10.9-2.22-5.16-2.64-7.56-2.34-8.04l.18-.28h-5.49l.12.26s1.81,3.98,3.66,8.21c.35.81,1.22,2.82,2.27,5.25,1.38,3.2,3.09,7.14,4.36,10.06l-.9,2.06c-1.08,2.47-3.88,4.84-6.51,5.5l-.37.09.3.23c.07.05,1.67,1.27,3.66,1.83l.09.03.07-.06c1.8-1.56,3.64-4.53,5.47-8.84l6.9-16.13c2.36-5.52,3.74-8.2,3.76-8.22l.14-.27h-4.29Z"/>
      </g>
    </g>
    <g>
      <path class="cls-3" d="m627.61,48.36v-17.79h6.69c1.34,0,2.5.21,3.48.62.98.41,1.74,1.06,2.29,1.95s.82,2.05.82,3.5-.3,2.52-.91,3.45c-.6.92-1.43,1.61-2.46,2.08-1.04.46-2.23.69-3.57.69h-3.2v5.51h-3.14Zm3.14-8.33h3.14c1.16,0,2.09-.28,2.79-.83s1.06-1.43,1.06-2.62c0-1.04-.29-1.82-.88-2.35-.59-.53-1.49-.79-2.72-.79h-3.4v6.59Z"/>
      <path class="cls-3" d="m652.14,48.56c-1.83,0-3.38-.39-4.67-1.16-1.28-.77-2.26-1.84-2.94-3.22-.68-1.38-1.02-2.94-1.02-4.71s.34-3.38,1.03-4.74c.69-1.37,1.68-2.44,2.97-3.22s2.85-1.17,4.68-1.17,3.38.39,4.67,1.16c1.28.77,2.27,1.84,2.96,3.21.69,1.37,1.03,2.94,1.03,4.72s-.34,3.33-1.02,4.71c-.68,1.38-1.67,2.46-2.97,3.24-1.3.79-2.87,1.18-4.72,1.18Zm.05-2.92c1.27,0,2.31-.29,3.12-.88.81-.59,1.4-1.35,1.77-2.29.38-.94.57-1.94.57-2.99,0-.81-.1-1.58-.31-2.32-.21-.74-.54-1.4-.98-1.99-.44-.59-1.01-1.05-1.7-1.4s-1.51-.52-2.46-.52c-1.26,0-2.29.29-3.11.88-.81.59-1.41,1.35-1.8,2.29-.39.94-.58,1.95-.58,3.04s.19,2.08.58,3.02c.39.94.98,1.7,1.8,2.28s1.85.87,3.11.87Z"/>
      <path class="cls-3" d="m667.03,48.36l-4.53-17.79h3.52l3.42,14.52,3.37-14.52h4.28l3.37,14.52,3.37-14.52h3.35l-4.5,17.79h-4.43l-3.35-14.24-3.37,14.24h-4.5Z"/>
      <path class="cls-3" d="m690,48.36v-17.79h12.56v2.87h-9.41v4.68h8.18v2.82h-8.18v4.55h9.41v2.87h-12.56Z"/>
      <path class="cls-3" d="m706.18,48.36v-17.79h7.02c.91,0,1.76.09,2.57.26.8.18,1.52.48,2.14.9s1.11,1.01,1.46,1.75.53,1.65.53,2.74c0,.91-.16,1.7-.48,2.39s-.76,1.27-1.32,1.74c-.56.47-1.23.83-2,1.08l3.9,6.92h-3.52l-3.5-6.42h-3.65v6.42h-3.14Zm3.14-9.21h3.45c.57,0,1.09-.05,1.57-.14s.9-.25,1.26-.46c.36-.22.64-.52.83-.89.19-.38.3-.86.32-1.45,0-.7-.15-1.26-.44-1.66-.29-.4-.71-.69-1.26-.86s-1.2-.25-1.95-.25h-3.77v5.71Z"/>
      <path class="cls-3" d="m723.89,48.36v-17.79h12.56v2.87h-9.41v4.68h8.18v2.82h-8.18v4.55h9.41v2.87h-12.56Z"/>
      <path class="cls-3" d="m740.07,48.36v-17.79h6.57c1.86,0,3.44.36,4.73,1.07,1.29.71,2.28,1.74,2.96,3.07.68,1.33,1.02,2.93,1.02,4.79s-.33,3.4-.99,4.73c-.66,1.33-1.64,2.34-2.93,3.06-1.29.71-2.88,1.07-4.76,1.07h-6.59Zm3.14-2.87h3.37c1.32,0,2.39-.26,3.21-.77.81-.51,1.41-1.22,1.79-2.11.38-.9.57-1.94.57-3.13s-.18-2.19-.55-3.1c-.37-.9-.96-1.62-1.77-2.15-.81-.53-1.88-.79-3.21-.79h-3.4v12.05Z"/>
      <path class="cls-3" d="m766.59,48.36v-17.79h7.3c.82,0,1.58.07,2.28.21.7.14,1.3.39,1.81.74.51.35.91.82,1.2,1.41.28.59.43,1.32.43,2.19,0,.8-.19,1.54-.55,2.2-.37.66-.91,1.16-1.64,1.5.97.25,1.72.73,2.24,1.45s.78,1.64.78,2.78c0,1.02-.19,1.87-.57,2.55-.38.68-.9,1.22-1.56,1.62-.66.4-1.43.69-2.3.87-.87.18-1.8.26-2.79.26h-6.62Zm3.14-10.34h3.32c.52,0,.99-.05,1.41-.15.42-.1.78-.26,1.08-.46.3-.21.54-.47.7-.78s.25-.69.25-1.14c0-.59-.13-1.03-.4-1.32-.27-.29-.63-.49-1.1-.58s-.98-.14-1.55-.14h-3.73v4.58Zm0,7.47h3.75c.47,0,.93-.03,1.38-.1.45-.07.86-.18,1.23-.35.37-.17.66-.42.87-.74.21-.33.31-.75.31-1.27,0-.47-.08-.86-.25-1.16-.17-.3-.4-.54-.69-.72-.29-.18-.64-.3-1.04-.38-.4-.08-.82-.11-1.26-.11h-4.3v4.83Z"/>
      <path class="cls-3" d="m788.56,48.36v-6.64l-6.52-11.15h3.65l4.48,8.15,4.48-8.15h3.57l-6.52,11.12v6.67h-3.14Z"/>
    </g>
  </g>
</svg>